<svg width="21" height="21" viewBox="0 0 21 21" fill="none" xmlns="http://www.w3.org/2000/svg">
<path d="M10.0526 7.59031V5.4464C10.0528 5.28083 10.1021 5.11905 10.1942 4.98144C10.2862 4.84383 10.417 4.73655 10.5699 4.67312C10.7228 4.60969 10.8911 4.59294 11.0535 4.625C11.216 4.65705 11.3653 4.73647 11.4827 4.85325L16.7549 10.0543L11.4827 15.2544C11.405 15.3325 11.3127 15.3944 11.2111 15.4367C11.1094 15.479 11.0004 15.5008 10.8903 15.5008C10.7803 15.5008 10.6712 15.479 10.5696 15.4367C10.4679 15.3944 10.3757 15.3325 10.298 15.2544C10.1409 15.0973 10.0526 14.8843 10.0526 14.6621V12.5768C7.74863 12.6338 5.23107 13.051 3.35023 15.9188V15.081C3.35023 11.1995 6.2825 8.00753 10.0526 7.59031Z" fill="#008BFD"/>
</svg>
