<svg width="7488" height="3571" viewBox="0 0 7488 3571" fill="none" xmlns="http://www.w3.org/2000/svg">
<mask id="mask0_1012_11071" style="mask-type:alpha" maskUnits="userSpaceOnUse" x="2037" y="1411" width="4794" height="615">
<path d="M5895.8 1421.55H6196.33V1525.24H5892.29C5838.69 1525.24 5814.96 1554.24 5814.96 1595.54C5814.96 1631.56 5833.41 1665.83 5902.83 1665.83H6041.67C6203.36 1665.83 6241.14 1755.46 6241.14 1840.7C6241.14 1940.88 6187.54 2014.69 6052.22 2014.69H5721.81V1911H6055.73C6111.97 1911 6137.45 1880.24 6137.45 1837.19C6137.45 1798.52 6117.24 1763.37 6044.31 1763.37H5906.35C5748.18 1763.37 5711.27 1674.62 5711.27 1592.02C5711.27 1493.6 5763.99 1421.55 5895.8 1421.55Z" fill="#FF0000"/>
<path d="M6533 1421.55H6830.01V1525.24H6533C6470.61 1525.24 6443.36 1554.24 6443.36 1599.93C6443.36 1648.26 6474.12 1670.23 6533.87 1670.23H6825.61V1764.25H6531.24C6471.48 1764.25 6440.73 1787.98 6440.73 1836.31C6440.73 1882.88 6469.73 1911 6530.36 1911H6830.89V2014.69H6530.36C6389.76 2014.69 6332.64 1945.27 6332.64 1853C6332.64 1785.34 6363.4 1739.65 6417.88 1716.8C6362.52 1693.95 6334.4 1648.26 6334.4 1583.23C6334.4 1488.33 6393.28 1421.55 6533 1421.55Z" fill="#FF0000"/>
<path d="M5109.46 1421.55H5431.08C5564.65 1421.55 5621.76 1504.15 5621.76 1599.05C5621.76 1672.86 5586.62 1751.95 5496.11 1777.43L5634.07 2014.69H5518.95L5383.63 1785.34H5228.97C5219.31 1785.34 5214.03 1789.74 5214.03 1800.28V2014.69H5110.34V1780.07C5110.34 1713.29 5138.46 1686.04 5203.49 1686.04H5434.6C5493.47 1686.04 5517.2 1645.62 5517.2 1603.44C5517.2 1561.27 5491.71 1525.24 5434.6 1525.24H5109.46V1421.55Z" fill="#FF0000"/>
<path d="M4678.56 1421.55H4975.57V1525.24H4678.56C4616.17 1525.24 4588.93 1554.24 4588.93 1599.93C4588.93 1648.26 4619.68 1670.23 4679.44 1670.23H4971.18V1764.25H4676.8C4617.05 1764.25 4586.29 1787.98 4586.29 1836.31C4586.29 1882.88 4615.29 1911 4675.92 1911H4976.45V2014.69H4675.92C4535.33 2014.69 4478.21 1945.27 4478.21 1853C4478.21 1785.34 4508.96 1739.65 4563.45 1716.8C4508.09 1693.95 4479.97 1648.26 4479.97 1583.23C4479.97 1488.33 4538.84 1421.55 4678.56 1421.55Z" fill="#FF0000"/>
<path d="M3759.4 1419.64H3769.93C3832.33 1419.64 3888.22 1458.28 3910.26 1516.66L4053.77 1896.79C4059.05 1910.85 4068.71 1917 4082.77 1917C4096.83 1917 4105.62 1910.85 4111.77 1896.79L4300.7 1419.64H4415.81L4206.67 1946.88C4184.7 2002.24 4144.28 2023.33 4082.77 2023.33C4024.78 2023.33 3979.96 2004.88 3957.99 1946.88L3759.4 1419.64Z" fill="#FF0000"/>
<path d="M3744.47 1537.54L3556.42 2014.69H3442.19L3650.45 1487.45C3672.42 1432.09 3712.84 1411 3775.23 1411C3836.74 1411 3877.16 1432.09 3898.25 1487.45L4098.6 2014.69H4087.19C4024.79 2014.69 3968.9 1976.05 3946.86 1917.67L3803.35 1537.54C3798.08 1523.48 3788.41 1517.33 3774.35 1517.33C3760.29 1517.33 3750.62 1523.48 3744.47 1537.54Z" fill="#FF0000"/>
<path d="M3009.88 1421.55H3460.67V1525.24H3287.56V2014.69H3182.99V1525.24H3009.88V1421.55Z" fill="#FF0000"/>
<path d="M2386.94 1545.45V2014.69H2283.25V1540.17C2283.25 1462.85 2327.19 1411 2419.46 1411C2502.06 1411 2538.96 1453.18 2563.57 1520.84L2736.68 1899.57C2743.71 1913.63 2755.13 1924.18 2774.46 1924.18C2796.43 1924.18 2809.61 1911 2809.61 1890.79V1421.54H2914.18V1895.18C2914.18 1973.39 2869.37 2025.23 2777.98 2025.23C2695.38 2025.23 2657.59 1983.05 2632.99 1915.39L2459.88 1536.66C2451.97 1519.08 2441.43 1511.18 2422.97 1511.18C2399.25 1511.18 2386.94 1524.36 2386.94 1545.45Z" fill="#FF0000"/>
<path d="M2037 1421.55H2140.69V2014.69H2037V1421.55Z" fill="#FF0000"/>
</mask>
<g mask="url(#mask0_1012_11071)">
<g filter="url(#filter0_d_1012_11071)">
<rect x="346.854" y="1180.26" width="7475.19" height="1090.34" fill="#000143"/>
</g>
</g>
<path d="M1279.54 1409.74L1280.28 1410.88L1343.58 1508.6L1343.58 1508.6L1393.8 1586.27L1403.5 1601.21L1404.38 1602.57L1403.5 1603.93L1344.16 1695.68L1342.06 1698.93L1339.96 1695.68L1270.84 1588.99L1221.28 1512.46H900.896L1338.1 2187.65L1775.31 1512.46H1669.11L1619.56 1588.99L1336.83 2025.55L1334.73 2028.79L1332.63 2025.55L1049.9 1588.99L1047.4 1585.13H1173.2L1173.94 1586.27L1293.57 1771L1293.57 1771L1336.09 1836.73L1498.32 1586.27L1548.54 1508.6L1548.54 1508.6L1611.84 1410.88L1612.58 1409.74H1908.9C1929.11 1409.74 1941.29 1432.14 1930.3 1449.11L1890 1511.32L1335.25 2368.06L1335.16 2368.19C1333.19 2371.23 1328.73 2371.13 1326.88 2368.06V2368.06L772.127 1511.32L731.827 1449.11C720.837 1432.14 733.015 1409.74 753.229 1409.74H1279.54Z" fill="url(#paint0_linear_1012_11071)" stroke="#FFD74A" stroke-width="5"/>
<path d="M2087.65 2370V2237.13H2043.15V2219.5H2153.87V2237.13H2109.15V2370H2087.65ZM2307.87 2370V2219.5H2329.37V2370H2307.87ZM2212.2 2370V2219.5H2233.7V2370H2212.2ZM2230.04 2302.06V2284.43H2312.6V2302.06H2230.04ZM2397.4 2370V2219.5H2492.43V2237.13H2418.9V2285.29H2485.98V2302.49H2418.9V2352.37H2492.43V2370H2397.4ZM2697.57 2372.58C2686.53 2372.58 2676.86 2370.64 2668.55 2366.77C2660.23 2362.76 2653.78 2357.17 2649.2 2350C2644.61 2342.84 2642.32 2334.45 2642.32 2324.85H2664.89C2665.03 2330.3 2666.32 2335.31 2668.76 2339.9C2671.34 2344.34 2675 2347.93 2679.73 2350.65C2684.6 2353.23 2690.55 2354.52 2697.57 2354.52C2703.59 2354.52 2708.75 2353.52 2713.05 2351.51C2717.49 2349.5 2720.86 2346.78 2723.16 2343.34C2725.45 2339.76 2726.6 2335.67 2726.6 2331.08C2726.6 2325.78 2725.38 2321.41 2722.94 2317.97C2720.5 2314.53 2717.21 2311.73 2713.05 2309.58C2709.04 2307.29 2704.31 2305.28 2698.86 2303.56C2693.56 2301.84 2687.97 2299.98 2682.09 2297.97C2670.19 2294.1 2661.31 2289.09 2655.43 2282.92C2649.7 2276.76 2646.83 2268.73 2646.83 2258.84C2646.83 2250.39 2648.84 2243.08 2652.85 2236.91C2656.86 2230.61 2662.45 2225.73 2669.62 2222.29C2676.93 2218.71 2685.53 2216.92 2695.42 2216.92C2705.17 2216.92 2713.7 2218.71 2721.01 2222.29C2728.32 2225.88 2734.05 2230.82 2738.21 2237.13C2742.36 2243.44 2744.44 2250.82 2744.44 2259.27H2721.65C2721.65 2255.4 2720.65 2251.61 2718.64 2247.88C2716.63 2244.15 2713.62 2241.14 2709.61 2238.85C2705.6 2236.41 2700.65 2235.19 2694.78 2235.19C2689.9 2235.05 2685.53 2235.84 2681.66 2237.56C2677.79 2239.28 2674.78 2241.79 2672.63 2245.08C2670.48 2248.38 2669.41 2252.32 2669.41 2256.91C2669.41 2261.5 2670.34 2265.22 2672.2 2268.09C2674.21 2270.81 2677.07 2273.18 2680.8 2275.18C2684.53 2277.19 2688.83 2279.05 2693.7 2280.77C2698.72 2282.35 2704.24 2284.14 2710.26 2286.15C2717.71 2288.59 2724.3 2291.6 2730.04 2295.18C2735.91 2298.62 2740.5 2303.13 2743.8 2308.72C2747.24 2314.17 2748.96 2321.19 2748.96 2329.79C2748.96 2337.25 2747.02 2344.2 2743.15 2350.65C2739.28 2357.1 2733.55 2362.4 2725.95 2366.56C2718.35 2370.57 2708.89 2372.58 2697.57 2372.58ZM2811.07 2370V2219.5H2836.44L2887.4 2321.19L2938.14 2219.5H2963.72V2370H2942.22V2257.12L2895.57 2348.93H2879.01L2832.57 2257.34V2370H2811.07ZM3021.87 2370L3077.13 2219.5H3100.56L3155.82 2370H3132.81L3088.74 2245.3L3044.45 2370H3021.87ZM3046.81 2332.8L3052.83 2315.6H3123.57L3129.59 2332.8H3046.81ZM3213.81 2370V2219.5H3264.77C3276.66 2219.5 3286.41 2221.51 3294.01 2225.52C3301.6 2229.53 3307.19 2234.91 3310.78 2241.64C3314.5 2248.24 3316.37 2255.76 3316.37 2264.22C3316.37 2272.25 3314.5 2279.7 3310.78 2286.58C3307.19 2293.32 3301.53 2298.76 3293.79 2302.92C3286.05 2306.93 3276.16 2308.94 3264.12 2308.94H3235.31V2370H3213.81ZM3292.93 2370L3260.47 2303.13H3284.12L3317.87 2370H3292.93ZM3235.31 2292.6H3263.26C3273.87 2292.6 3281.68 2290.02 3286.7 2284.86C3291.71 2279.56 3294.22 2272.82 3294.22 2264.65C3294.22 2256.34 3291.78 2249.74 3286.91 2244.87C3282.04 2240 3274.15 2237.56 3263.26 2237.56H3235.31V2292.6ZM3415.79 2370V2237.13H3371.29V2219.5H3482.01V2237.13H3437.29V2370H3415.79ZM3631.89 2370V2219.5H3725.42V2237.13H3653.39V2285.93H3713.59V2303.13H3653.39V2370H3631.89ZM3840.44 2372.58C3829.83 2372.58 3820.23 2370.5 3811.63 2366.34C3803.03 2362.04 3796.15 2355.59 3790.99 2346.99C3785.97 2338.25 3783.47 2327.14 3783.47 2313.67V2219.5H3804.97V2313.88C3804.97 2322.91 3806.47 2330.37 3809.48 2336.24C3812.49 2341.98 3816.65 2346.28 3821.95 2349.14C3827.4 2351.87 3833.7 2353.23 3840.87 2353.23C3848.18 2353.23 3854.49 2351.87 3859.79 2349.14C3865.09 2346.28 3869.18 2341.98 3872.05 2336.24C3875.06 2330.37 3876.56 2322.91 3876.56 2313.88V2219.5H3898.06V2313.67C3898.06 2327.14 3895.48 2338.25 3890.32 2346.99C3885.16 2355.59 3878.21 2362.04 3869.47 2366.34C3860.72 2370.5 3851.05 2372.58 3840.44 2372.58ZM3999.55 2370V2237.13H3955.05V2219.5H4065.77V2237.13H4021.05V2370H3999.55ZM4179.56 2372.58C4168.96 2372.58 4159.35 2370.5 4150.75 2366.34C4142.15 2362.04 4135.27 2355.59 4130.11 2346.99C4125.1 2338.25 4122.59 2327.14 4122.59 2313.67V2219.5H4144.09V2313.88C4144.09 2322.91 4145.59 2330.37 4148.6 2336.24C4151.61 2341.98 4155.77 2346.28 4161.07 2349.14C4166.52 2351.87 4172.83 2353.23 4179.99 2353.23C4187.3 2353.23 4193.61 2351.87 4198.91 2349.14C4204.22 2346.28 4208.3 2341.98 4211.17 2336.24C4214.18 2330.37 4215.68 2322.91 4215.68 2313.88V2219.5H4237.18V2313.67C4237.18 2327.14 4234.6 2338.25 4229.44 2346.99C4224.28 2355.59 4217.33 2362.04 4208.59 2366.34C4199.84 2370.5 4190.17 2372.58 4179.56 2372.58ZM4303.63 2370V2219.5H4354.58C4366.48 2219.5 4376.22 2221.51 4383.82 2225.52C4391.42 2229.53 4397.01 2234.91 4400.59 2241.64C4404.32 2248.24 4406.18 2255.76 4406.18 2264.22C4406.18 2272.25 4404.32 2279.7 4400.59 2286.58C4397.01 2293.32 4391.35 2298.76 4383.61 2302.92C4375.87 2306.93 4365.98 2308.94 4353.94 2308.94H4325.13V2370H4303.63ZM4382.75 2370L4350.28 2303.13H4373.93L4407.69 2370H4382.75ZM4325.13 2292.6H4353.08C4363.68 2292.6 4371.49 2290.02 4376.51 2284.86C4381.53 2279.56 4384.04 2272.82 4384.04 2264.65C4384.04 2256.34 4381.6 2249.74 4376.73 2244.87C4371.85 2240 4363.97 2237.56 4353.08 2237.56H4325.13V2292.6ZM4470.56 2370V2219.5H4565.59V2237.13H4492.06V2285.29H4559.14V2302.49H4492.06V2352.37H4565.59V2370H4470.56ZM4789.22 2372.58C4774.75 2372.58 4761.99 2369.36 4750.95 2362.91C4740.06 2356.31 4731.46 2347.21 4725.15 2335.6C4718.99 2323.85 4715.91 2310.23 4715.91 2294.75C4715.91 2279.41 4718.99 2265.94 4725.15 2254.33C4731.46 2242.58 4740.06 2233.4 4750.95 2226.81C4761.99 2220.22 4774.75 2216.92 4789.22 2216.92C4803.99 2216.92 4816.89 2220.22 4827.92 2226.81C4838.96 2233.4 4847.49 2242.58 4853.51 2254.33C4859.67 2265.94 4862.75 2279.41 4862.75 2294.75C4862.75 2310.23 4859.67 2323.85 4853.51 2335.6C4847.49 2347.21 4838.96 2356.31 4827.92 2362.91C4816.89 2369.36 4803.99 2372.58 4789.22 2372.58ZM4789.44 2353.44C4799.76 2353.44 4808.79 2351.08 4816.53 2346.35C4824.27 2341.62 4830.22 2334.88 4834.37 2326.14C4838.67 2317.4 4840.82 2306.93 4840.82 2294.75C4840.82 2282.57 4838.67 2272.1 4834.37 2263.36C4830.22 2254.62 4824.27 2247.95 4816.53 2243.36C4808.79 2238.63 4799.76 2236.27 4789.44 2236.27C4779.12 2236.27 4770.09 2238.63 4762.35 2243.36C4754.61 2247.95 4748.59 2254.62 4744.29 2263.36C4739.99 2272.1 4737.84 2282.57 4737.84 2294.75C4737.84 2306.93 4739.99 2317.4 4744.29 2326.14C4748.59 2334.88 4754.61 2341.62 4762.35 2346.35C4770.09 2351.08 4779.12 2353.44 4789.44 2353.44ZM4925.18 2370V2219.5H5018.7V2237.13H4946.68V2285.93H5006.88V2303.13H4946.68V2370H4925.18ZM5204.86 2370V2237.13H5160.36V2219.5H5271.08V2237.13H5226.36V2370H5204.86ZM5329.4 2370V2219.5H5424.43V2237.13H5350.9V2285.29H5417.98V2302.49H5350.9V2352.37H5424.43V2370H5329.4ZM5554.78 2372.58C5540.02 2372.58 5527.26 2369.36 5516.51 2362.91C5505.91 2356.31 5497.67 2347.21 5491.79 2335.6C5486.06 2323.85 5483.19 2310.23 5483.19 2294.75C5483.19 2279.41 5486.06 2265.87 5491.79 2254.11C5497.67 2242.36 5505.91 2233.26 5516.51 2226.81C5527.26 2220.22 5540.02 2216.92 5554.78 2216.92C5572.41 2216.92 5586.68 2221.15 5597.57 2229.6C5608.61 2238.06 5615.63 2249.96 5618.64 2265.29H5594.99C5592.84 2256.41 5588.4 2249.31 5581.66 2244.01C5575.07 2238.71 5566.11 2236.05 5554.78 2236.05C5544.61 2236.05 5535.79 2238.42 5528.34 2243.15C5520.89 2247.88 5515.15 2254.62 5511.14 2263.36C5507.13 2272.1 5505.12 2282.57 5505.12 2294.75C5505.12 2306.93 5507.13 2317.47 5511.14 2326.35C5515.15 2335.1 5520.89 2341.83 5528.34 2346.56C5535.79 2351.15 5544.61 2353.44 5554.78 2353.44C5566.11 2353.44 5575.07 2350.94 5581.66 2345.92C5588.4 2340.76 5592.84 2333.81 5594.99 2325.06H5618.64C5615.63 2339.97 5608.61 2351.65 5597.57 2360.11C5586.68 2368.42 5572.41 2372.58 5554.78 2372.58ZM5776.59 2370V2219.5H5798.09V2370H5776.59ZM5680.91 2370V2219.5H5702.41V2370H5680.91ZM5698.76 2302.06V2284.43H5781.32V2302.06H5698.76ZM5866.11 2370V2219.5H5887.61L5964.37 2334.95V2219.5H5985.87V2370H5964.37L5887.61 2254.76V2370H5866.11ZM6121.56 2372.58C6107.08 2372.58 6094.33 2369.36 6083.29 2362.91C6072.4 2356.31 6063.8 2347.21 6057.49 2335.6C6051.33 2323.85 6048.24 2310.23 6048.24 2294.75C6048.24 2279.41 6051.33 2265.94 6057.49 2254.33C6063.8 2242.58 6072.4 2233.4 6083.29 2226.81C6094.33 2220.22 6107.08 2216.92 6121.56 2216.92C6136.32 2216.92 6149.22 2220.22 6160.26 2226.81C6171.3 2233.4 6179.82 2242.58 6185.84 2254.33C6192.01 2265.94 6195.09 2279.41 6195.09 2294.75C6195.09 2310.23 6192.01 2323.85 6185.84 2335.6C6179.82 2347.21 6171.3 2356.31 6160.26 2362.91C6149.22 2369.36 6136.32 2372.58 6121.56 2372.58ZM6121.77 2353.44C6132.09 2353.44 6141.12 2351.08 6148.86 2346.35C6156.6 2341.62 6162.55 2334.88 6166.71 2326.14C6171.01 2317.4 6173.16 2306.93 6173.16 2294.75C6173.16 2282.57 6171.01 2272.1 6166.71 2263.36C6162.55 2254.62 6156.6 2247.95 6148.86 2243.36C6141.12 2238.63 6132.09 2236.27 6121.77 2236.27C6111.45 2236.27 6102.42 2238.63 6094.68 2243.36C6086.94 2247.95 6080.92 2254.62 6076.62 2263.36C6072.32 2272.1 6070.17 2282.57 6070.17 2294.75C6070.17 2306.93 6072.32 2317.4 6076.62 2326.14C6080.92 2334.88 6086.94 2341.62 6094.68 2346.35C6102.42 2351.08 6111.45 2353.44 6121.77 2353.44ZM6257.51 2370V2219.5H6279.01V2353.01H6347.81V2370H6257.51ZM6463.41 2372.58C6448.93 2372.58 6436.18 2369.36 6425.14 2362.91C6414.25 2356.31 6405.65 2347.21 6399.34 2335.6C6393.18 2323.85 6390.09 2310.23 6390.09 2294.75C6390.09 2279.41 6393.18 2265.94 6399.34 2254.33C6405.65 2242.58 6414.25 2233.4 6425.14 2226.81C6436.18 2220.22 6448.93 2216.92 6463.41 2216.92C6478.17 2216.92 6491.07 2220.22 6502.11 2226.81C6513.15 2233.4 6521.67 2242.58 6527.69 2254.33C6533.86 2265.94 6536.94 2279.41 6536.94 2294.75C6536.94 2310.23 6533.86 2323.85 6527.69 2335.6C6521.67 2347.21 6513.15 2356.31 6502.11 2362.91C6491.07 2369.36 6478.17 2372.58 6463.41 2372.58ZM6463.62 2353.44C6473.94 2353.44 6482.97 2351.08 6490.71 2346.35C6498.45 2341.62 6504.4 2334.88 6508.56 2326.14C6512.86 2317.4 6515.01 2306.93 6515.01 2294.75C6515.01 2282.57 6512.86 2272.1 6508.56 2263.36C6504.4 2254.62 6498.45 2247.95 6490.71 2243.36C6482.97 2238.63 6473.94 2236.27 6463.62 2236.27C6453.3 2236.27 6444.27 2238.63 6436.53 2243.36C6428.79 2247.95 6422.77 2254.62 6418.47 2263.36C6414.17 2272.1 6412.02 2282.57 6412.02 2294.75C6412.02 2306.93 6414.17 2317.4 6418.47 2326.14C6422.77 2334.88 6428.79 2341.62 6436.53 2346.35C6444.27 2351.08 6453.3 2353.44 6463.62 2353.44ZM6664.51 2372.58C6650.32 2372.58 6637.92 2369.36 6627.31 2362.91C6616.71 2356.45 6608.47 2347.42 6602.59 2335.81C6596.71 2324.2 6593.77 2310.66 6593.77 2295.18C6593.77 2279.84 6596.71 2266.3 6602.59 2254.54C6608.61 2242.79 6617.14 2233.62 6628.17 2227.02C6639.35 2220.29 6652.54 2216.92 6667.73 2216.92C6684.79 2216.92 6699.05 2221.08 6710.52 2229.39C6721.99 2237.56 6729.37 2248.95 6732.66 2263.57H6708.15C6706 2255.26 6701.49 2248.74 6694.61 2244.01C6687.73 2239.14 6678.7 2236.7 6667.52 2236.7C6656.91 2236.7 6647.67 2239.06 6639.78 2243.79C6632.04 2248.52 6626.1 2255.26 6621.94 2264C6617.78 2272.75 6615.7 2283.14 6615.7 2295.18C6615.7 2307.36 6617.78 2317.83 6621.94 2326.57C6626.1 2335.31 6631.97 2341.98 6639.57 2346.56C6647.17 2351.15 6655.91 2353.44 6665.8 2353.44C6680.99 2353.44 6692.39 2349.07 6699.98 2340.33C6707.72 2331.59 6712.24 2319.9 6713.53 2305.28H6672.03V2288.73H6735.24V2370H6715.68L6713.74 2346.99C6710.3 2352.58 6706.29 2357.31 6701.7 2361.18C6697.26 2364.91 6692.03 2367.78 6686.01 2369.78C6679.99 2371.65 6672.82 2372.58 6664.51 2372.58ZM6829.33 2370V2314.1L6779.67 2219.5H6803.96L6842.88 2298.62H6837.5L6876.2 2219.5H6900.28L6850.83 2314.1V2370H6829.33Z" fill="#0080FF"/>
<defs>
<filter id="filter0_d_1012_11071" x="342.854" y="1180.26" width="7483.19" height="1098.34" filterUnits="userSpaceOnUse" color-interpolation-filters="sRGB">
<feFlood flood-opacity="0" result="BackgroundImageFix"/>
<feColorMatrix in="SourceAlpha" type="matrix" values="0 0 0 0 0 0 0 0 0 0 0 0 0 0 0 0 0 0 127 0" result="hardAlpha"/>
<feOffset dy="4"/>
<feGaussianBlur stdDeviation="2"/>
<feComposite in2="hardAlpha" operator="out"/>
<feColorMatrix type="matrix" values="0 0 0 0 0 0 0 0 0 0 0 0 0 0 0 0 0 0 0.75 0"/>
<feBlend mode="normal" in2="BackgroundImageFix" result="effect1_dropShadow_1012_11071"/>
<feBlend mode="normal" in="SourceGraphic" in2="effect1_dropShadow_1012_11071" result="shape"/>
</filter>
<linearGradient id="paint0_linear_1012_11071" x1="1330.91" y1="1689.98" x2="1330.91" y2="1911.8" gradientUnits="userSpaceOnUse">
<stop stop-color="#00D9FF"/>
<stop offset="1" stop-color="#0080FF"/>
</linearGradient>
</defs>
</svg>
